<svg xmlns="http://www.w3.org/2000/svg" xmlns:xlink="http://www.w3.org/1999/xlink" id="Layer_1" x="0px" y="0px" viewBox="0 0 184 55" style="enable-background:new 0 0 184 55;" xml:space="preserve"><style type="text/css">	.st0{fill:none;stroke:#E92627;stroke-width:0.5941;stroke-miterlimit:10;}	.st1{fill:#E92627;stroke:#E92627;stroke-width:0.5941;stroke-miterlimit:10;}	.st2{fill:#FFFFFF;}	.st3{fill:#E92627;}	.st4{fill:#24242D;}</style><g>	<g>		<path class="st0" d="M57.17,8.43V7.18c0-1.38-1.12-2.5-2.5-2.5H19.44c-1.38,0-2.5,1.12-2.5,2.5v1.25"></path>		<path class="st0" d="M57.17,8.43"></path>		<path class="st0" d="M16.93,8.43"></path>		<path class="st0" d="M16.93,26.77v8.6c0,0.73,0.35,1.42,0.95,1.85L35.61,49.9c0.79,0.56,1.84,0.57,2.63,0.01l17.96-12.7   c0.6-0.43,0.96-1.12,0.96-1.85v-8.59"></path>		<polyline class="st1" points="8.81,10.21 8.81,24.91 63.71,24.91 63.71,10.21   "></polyline>		<path class="st0" d="M57.17,26.77"></path>		<path class="st0" d="M60.2,24.91"></path>		<path class="st0" d="M13.9,24.91"></path>		<path class="st0" d="M16.93,26.77"></path>	</g>	<g>		<path class="st2" d="M16.27,16.55c0,0.92-0.69,1.49-1.79,1.49h-0.7v1.06h-1.14v-4.04h1.85C15.58,15.06,16.27,15.63,16.27,16.55z    M15.12,16.55c0-0.38-0.24-0.59-0.71-0.59h-0.63v1.18h0.63C14.88,17.14,15.12,16.92,15.12,16.55z"></path>		<path class="st2" d="M18.59,18.02h-0.62v1.07h-1.14v-4.04h1.85c1.1,0,1.79,0.57,1.79,1.49c0,0.59-0.29,1.03-0.79,1.27l0.87,1.27   h-1.22L18.59,18.02z M18.61,15.96h-0.63v1.18h0.63c0.47,0,0.71-0.22,0.71-0.59C19.31,16.18,19.08,15.96,18.61,15.96z"></path>		<path class="st2" d="M20.89,17.08c0-1.21,0.95-2.1,2.24-2.1s2.24,0.89,2.24,2.1c0,1.21-0.95,2.1-2.24,2.1S20.89,18.29,20.89,17.08   z M24.23,17.08c0-0.7-0.48-1.15-1.09-1.15s-1.09,0.46-1.09,1.15c0,0.7,0.48,1.15,1.09,1.15S24.23,17.77,24.23,17.08z"></path>		<path class="st2" d="M27.13,15.94v0.89h1.78v0.88h-1.78v1.38h-1.14v-4.04h3.17v0.88H27.13z"></path>		<path class="st2" d="M32.93,18.21v0.88h-3.24v-4.04h3.17v0.88h-2.04v0.68h1.79v0.85h-1.79v0.74H32.93z"></path>		<path class="st2" d="M33.29,18.73l0.38-0.84c0.36,0.24,0.87,0.4,1.33,0.4c0.47,0,0.66-0.13,0.66-0.33c0-0.64-2.3-0.17-2.3-1.67   c0-0.72,0.59-1.31,1.79-1.31c0.52,0,1.07,0.12,1.46,0.35l-0.35,0.85c-0.39-0.21-0.77-0.31-1.12-0.31c-0.48,0-0.65,0.16-0.65,0.36   c0,0.62,2.29,0.16,2.29,1.64c0,0.7-0.59,1.3-1.79,1.3C34.33,19.18,33.67,19,33.29,18.73z"></path>		<path class="st2" d="M37.03,18.73l0.38-0.84c0.36,0.24,0.87,0.4,1.33,0.4c0.47,0,0.66-0.13,0.66-0.33c0-0.64-2.3-0.17-2.3-1.67   c0-0.72,0.59-1.31,1.79-1.31c0.52,0,1.07,0.12,1.46,0.35L40,16.18c-0.39-0.21-0.77-0.31-1.12-0.31c-0.48,0-0.65,0.16-0.65,0.36   c0,0.62,2.29,0.16,2.29,1.64c0,0.7-0.59,1.3-1.79,1.3C38.06,19.18,37.41,19,37.03,18.73z"></path>		<path class="st2" d="M41.04,15.06h1.14v4.04h-1.14V15.06z"></path>		<path class="st2" d="M42.79,17.08c0-1.21,0.95-2.1,2.24-2.1s2.24,0.89,2.24,2.1c0,1.21-0.95,2.1-2.24,2.1S42.79,18.29,42.79,17.08   z M46.13,17.08c0-0.7-0.48-1.15-1.09-1.15s-1.09,0.46-1.09,1.15c0,0.7,0.48,1.15,1.09,1.15S46.13,17.77,46.13,17.08z"></path>		<path class="st2" d="M51.73,15.06v4.04h-0.94L49,16.94v2.15h-1.12v-4.04h0.94l1.78,2.15v-2.15H51.73z"></path>		<path class="st2" d="M55.24,18.31h-1.71l-0.32,0.78h-1.17l1.78-4.04h1.12l1.79,4.04h-1.19L55.24,18.31z M54.91,17.47l-0.52-1.29   l-0.52,1.29H54.91z"></path>		<path class="st2" d="M57.08,15.06h1.14v3.13h1.93v0.91h-3.07V15.06z"></path>	</g>	<polygon class="st3" points="35.23,27.33 38.93,27.33 44.38,40.3 40.32,40.3 37.17,32.61 34.99,37.33 37.78,37.33 38.87,40.36   29.78,40.36  "></polygon></g><g>	<path class="st4" d="M75.43,16.97h-4.05l-0.77,1.87h-2.07l3.89-8.73h1.99l3.9,8.73H76.2L75.43,16.97z M74.79,15.44l-1.38-3.34  l-1.38,3.34H74.79z"></path>	<path class="st4" d="M85.86,9.59v9.25h-1.86v-0.77c-0.49,0.59-1.2,0.87-2.09,0.87c-1.9,0-3.35-1.35-3.35-3.45s1.46-3.45,3.35-3.45  c0.82,0,1.52,0.26,2.01,0.81V9.59H85.86z M83.96,15.49c0-1.16-0.75-1.86-1.71-1.86c-0.97,0-1.72,0.7-1.72,1.86  c0,1.16,0.75,1.86,1.72,1.86C83.21,17.35,83.96,16.65,83.96,15.49z"></path>	<path class="st4" d="M87.16,15.49c0-2.02,1.56-3.45,3.69-3.45s3.68,1.43,3.68,3.45s-1.55,3.45-3.68,3.45S87.16,17.51,87.16,15.49z   M92.56,15.49c0-1.16-0.74-1.86-1.71-1.86c-0.97,0-1.72,0.7-1.72,1.86c0,1.16,0.75,1.86,1.72,1.86  C91.82,17.35,92.56,16.65,92.56,15.49z"></path>	<path class="st4" d="M103.13,15.49c0,2.11-1.46,3.45-3.34,3.45c-0.9,0-1.62-0.29-2.11-0.87v0.77h-1.86V9.59h1.95v3.25  c0.5-0.55,1.18-0.81,2.02-0.81C101.67,12.04,103.13,13.38,103.13,15.49z M101.16,15.49c0-1.16-0.74-1.86-1.71-1.86  s-1.71,0.7-1.71,1.86c0,1.16,0.74,1.86,1.71,1.86S101.16,16.65,101.16,15.49z"></path>	<path class="st4" d="M110.96,16.04h-5.07c0.19,0.84,0.9,1.35,1.92,1.35c0.71,0,1.22-0.21,1.68-0.65l1.04,1.12  c-0.62,0.71-1.56,1.08-2.77,1.08c-2.32,0-3.83-1.46-3.83-3.45c0-2.01,1.53-3.45,3.58-3.45c1.97,0,3.49,1.32,3.49,3.48  C111,15.66,110.97,15.88,110.96,16.04z M105.86,14.9h3.3c-0.14-0.85-0.77-1.4-1.65-1.4C106.63,13.51,106,14.04,105.86,14.9z"></path>	<path class="st4" d="M115.41,14.48c0-2.63,2.02-4.51,4.74-4.51c1.51,0,2.77,0.55,3.59,1.55l-1.3,1.2  c-0.59-0.67-1.32-1.02-2.19-1.02c-1.63,0-2.79,1.15-2.79,2.79s1.16,2.79,2.79,2.79c0.87,0,1.61-0.35,2.19-1.03l1.3,1.2  c-0.82,1.01-2.08,1.56-3.6,1.56C117.43,18.99,115.41,17.11,115.41,14.48z"></path>	<path class="st4" d="M131.25,16.04h-5.07c0.19,0.84,0.9,1.35,1.92,1.35c0.71,0,1.22-0.21,1.68-0.65l1.04,1.12  c-0.62,0.71-1.56,1.08-2.77,1.08c-2.32,0-3.83-1.46-3.83-3.45c0-2.01,1.53-3.45,3.58-3.45c1.97,0,3.49,1.32,3.49,3.48  C131.29,15.66,131.27,15.88,131.25,16.04z M126.15,14.9h3.3c-0.14-0.85-0.77-1.4-1.65-1.4C126.93,13.51,126.29,14.04,126.15,14.9z"></path>	<path class="st4" d="M136.75,12.04v1.79c-0.16-0.01-0.29-0.02-0.44-0.02c-1.07,0-1.78,0.59-1.78,1.87v3.17h-1.95v-6.71h1.86v0.89  C134.92,12.37,135.72,12.04,136.75,12.04z"></path>	<path class="st4" d="M142.47,18.52c-0.4,0.29-0.99,0.42-1.58,0.42c-1.58,0-2.51-0.81-2.51-2.41v-2.76h-1.04v-1.5h1.04v-1.63h1.94  v1.63H142v1.5h-1.67v2.73c0,0.57,0.31,0.88,0.83,0.88c0.29,0,0.57-0.09,0.79-0.25L142.47,18.52z"></path>	<path class="st4" d="M143.33,10.12c0-0.61,0.49-1.08,1.21-1.08c0.72,0,1.21,0.45,1.21,1.05c0,0.65-0.49,1.12-1.21,1.12  C143.82,11.2,143.33,10.73,143.33,10.12z M143.57,12.14h1.95v6.71h-1.95V12.14z"></path>	<path class="st4" d="M149.45,12v0.29h1.72v1.5h-1.67v5.06h-1.94v-5.06h-1.04v-1.5h1.04v-0.3c0-1.51,0.92-2.49,2.59-2.49  c0.55,0,1.12,0.11,1.48,0.36l-0.51,1.41c-0.21-0.15-0.49-0.24-0.79-0.24C149.76,11.03,149.45,11.34,149.45,12z M152.91,10.12  c0-0.61,0.49-1.08,1.21-1.08c0.72,0,1.21,0.45,1.21,1.05c0,0.65-0.49,1.12-1.21,1.12C153.39,11.2,152.91,10.73,152.91,10.12z   M153.14,12.14h1.94v6.71h-1.94V12.14z"></path>	<path class="st4" d="M163.43,16.04h-5.07c0.19,0.84,0.9,1.35,1.92,1.35c0.71,0,1.22-0.21,1.68-0.65l1.04,1.12  c-0.62,0.71-1.56,1.08-2.77,1.08c-2.32,0-3.83-1.46-3.83-3.45c0-2.01,1.53-3.45,3.58-3.45c1.97,0,3.49,1.32,3.49,3.48  C163.47,15.66,163.44,15.88,163.43,16.04z M158.33,14.9h3.3c-0.14-0.85-0.77-1.4-1.65-1.4C159.1,13.51,158.47,14.04,158.33,14.9z"></path>	<path class="st4" d="M171.59,9.59v9.25h-1.86v-0.77c-0.49,0.59-1.2,0.87-2.09,0.87c-1.89,0-3.35-1.35-3.35-3.45  s1.46-3.45,3.35-3.45c0.82,0,1.52,0.26,2.01,0.81V9.59H171.59z M169.69,15.49c0-1.16-0.75-1.86-1.71-1.86  c-0.97,0-1.72,0.7-1.72,1.86c0,1.16,0.75,1.86,1.72,1.86C168.94,17.35,169.69,16.65,169.69,15.49z"></path>	<path class="st4" d="M75.68,26.54c0,1.59-1.19,2.58-3.1,2.58h-1.44v1.97h-1.65v-7.13h3.09C74.49,23.95,75.68,24.94,75.68,26.54z   M74.01,26.54c0-0.79-0.51-1.24-1.52-1.24h-1.35v2.48h1.35C73.5,27.77,74.01,27.31,74.01,26.54z"></path>	<path class="st4" d="M80.15,25.52v1.47c-0.13-0.01-0.23-0.02-0.36-0.02c-0.88,0-1.46,0.48-1.46,1.53v2.59h-1.59V25.6h1.52v0.72  C78.65,25.79,79.3,25.52,80.15,25.52z"></path>	<path class="st4" d="M80.64,28.34c0-1.65,1.27-2.82,3.02-2.82s3.01,1.17,3.01,2.82c0,1.65-1.26,2.82-3.01,2.82  S80.64,29.99,80.64,28.34z M85.06,28.34c0-0.95-0.6-1.52-1.4-1.52s-1.41,0.57-1.41,1.52c0,0.95,0.61,1.52,1.41,1.52  S85.06,29.29,85.06,28.34z"></path>	<path class="st4" d="M89.47,25.72h1.41v1.22h-1.37v4.14h-1.59v-4.14h-0.85v-1.22h0.85v-0.24c0-1.23,0.75-2.04,2.12-2.04  c0.45,0,0.92,0.09,1.21,0.3l-0.42,1.15c-0.17-0.12-0.4-0.19-0.64-0.19c-0.47,0-0.72,0.25-0.72,0.8V25.72z"></path>	<path class="st4" d="M96.95,28.79H92.8c0.15,0.68,0.73,1.1,1.57,1.1c0.58,0,1-0.17,1.38-0.53l0.85,0.92  c-0.51,0.58-1.27,0.89-2.26,0.89c-1.9,0-3.13-1.19-3.13-2.82c0-1.64,1.25-2.82,2.93-2.82c1.61,0,2.85,1.08,2.85,2.84  C96.98,28.48,96.96,28.66,96.95,28.79z M92.78,27.86h2.7c-0.11-0.69-0.63-1.14-1.35-1.14C93.41,26.72,92.89,27.16,92.78,27.86z"></path>	<path class="st4" d="M97.51,30.57l0.53-1.14c0.49,0.32,1.23,0.53,1.91,0.53c0.73,0,1.01-0.19,1.01-0.5c0-0.9-3.31,0.02-3.31-2.17  c0-1.04,0.94-1.77,2.54-1.77c0.75,0,1.59,0.17,2.11,0.48l-0.53,1.13c-0.54-0.31-1.08-0.41-1.58-0.41c-0.71,0-1.02,0.22-1.02,0.51  c0,0.94,3.31,0.03,3.31,2.19c0,1.02-0.95,1.74-2.59,1.74C98.96,31.16,98.02,30.91,97.51,30.57z"></path>	<path class="st4" d="M102.93,30.57l0.53-1.14c0.49,0.32,1.23,0.53,1.91,0.53c0.73,0,1.01-0.19,1.01-0.5c0-0.9-3.31,0.02-3.31-2.17  c0-1.04,0.94-1.77,2.54-1.77c0.75,0,1.59,0.17,2.11,0.48l-0.53,1.13c-0.54-0.31-1.08-0.41-1.58-0.41c-0.71,0-1.02,0.22-1.02,0.51  c0,0.94,3.31,0.03,3.31,2.19c0,1.02-0.95,1.74-2.59,1.74C104.38,31.16,103.44,30.91,102.93,30.57z"></path>	<path class="st4" d="M108.68,23.95c0-0.5,0.4-0.89,0.99-0.89c0.59,0,0.99,0.37,0.99,0.86c0,0.53-0.4,0.92-0.99,0.92  C109.08,24.83,108.68,24.45,108.68,23.95z M108.87,25.6h1.59v5.48h-1.59V25.6z"></path>	<path class="st4" d="M111.54,28.34c0-1.65,1.27-2.82,3.02-2.82c1.74,0,3.01,1.17,3.01,2.82c0,1.65-1.26,2.82-3.01,2.82  C112.81,31.16,111.54,29.99,111.54,28.34z M115.95,28.34c0-0.95-0.6-1.52-1.4-1.52c-0.79,0-1.41,0.57-1.41,1.52  c0,0.95,0.61,1.52,1.41,1.52C115.35,29.86,115.95,29.29,115.95,28.34z"></path>	<path class="st4" d="M124.23,27.94v3.14h-1.59v-2.89c0-0.89-0.41-1.29-1.11-1.29c-0.76,0-1.31,0.47-1.31,1.48v2.71h-1.59V25.6h1.52  v0.64c0.43-0.47,1.07-0.72,1.81-0.72C123.25,25.52,124.23,26.27,124.23,27.94z"></path>	<path class="st4" d="M130.53,27.95v3.13h-1.49V30.4c-0.3,0.5-0.87,0.76-1.67,0.76c-1.28,0-2.05-0.71-2.05-1.66  c0-0.97,0.68-1.64,2.35-1.64h1.26c0-0.68-0.41-1.08-1.26-1.08c-0.58,0-1.18,0.19-1.58,0.51l-0.57-1.11  c0.6-0.43,1.49-0.66,2.36-0.66C129.56,25.52,130.53,26.29,130.53,27.95z M128.93,29.35v-0.56h-1.09c-0.74,0-0.98,0.28-0.98,0.64  c0,0.4,0.34,0.66,0.9,0.66C128.29,30.09,128.75,29.85,128.93,29.35z"></path>	<path class="st4" d="M131.97,23.52h1.59v7.56h-1.59V23.52z"></path>	<path class="st4" d="M134.83,27.58h2.88v1.27h-2.88V27.58z"></path>	<path class="st4" d="M143.55,29.55h-3.31l-0.63,1.53h-1.69l3.18-7.13h1.63l3.19,7.13h-1.73L143.55,29.55z M143.03,28.3l-1.13-2.73  l-1.13,2.73H143.03z"></path>	<path class="st4" d="M152.09,23.52v7.56h-1.52v-0.63c-0.4,0.48-0.98,0.71-1.71,0.71c-1.55,0-2.74-1.1-2.74-2.82  c0-1.72,1.19-2.82,2.74-2.82c0.67,0,1.24,0.21,1.64,0.66v-2.66H152.09z M150.53,28.34c0-0.95-0.61-1.52-1.4-1.52  c-0.79,0-1.41,0.57-1.41,1.52c0,0.95,0.61,1.52,1.41,1.52C149.92,29.86,150.53,29.29,150.53,28.34z"></path>	<path class="st4" d="M153.15,28.34c0-1.65,1.27-2.82,3.02-2.82c1.74,0,3.01,1.17,3.01,2.82c0,1.65-1.26,2.82-3.01,2.82  C154.43,31.16,153.15,29.99,153.15,28.34z M157.56,28.34c0-0.95-0.6-1.52-1.4-1.52c-0.8,0-1.41,0.57-1.41,1.52  c0,0.95,0.61,1.52,1.41,1.52C156.96,29.86,157.56,29.29,157.56,28.34z"></path>	<path class="st4" d="M166.21,28.34c0,1.72-1.19,2.82-2.73,2.82c-0.73,0-1.33-0.23-1.72-0.71v0.63h-1.52v-7.56h1.59v2.66  c0.41-0.45,0.97-0.66,1.65-0.66C165.02,25.52,166.21,26.62,166.21,28.34z M164.6,28.34c0-0.95-0.6-1.52-1.4-1.52  s-1.4,0.57-1.4,1.52c0,0.95,0.6,1.52,1.4,1.52S164.6,29.29,164.6,28.34z"></path>	<path class="st4" d="M172.62,28.79h-4.15c0.15,0.68,0.73,1.1,1.57,1.1c0.58,0,1-0.17,1.38-0.53l0.85,0.92  c-0.51,0.58-1.27,0.89-2.26,0.89c-1.9,0-3.13-1.19-3.13-2.82c0-1.64,1.25-2.82,2.93-2.82c1.61,0,2.85,1.08,2.85,2.84  C172.65,28.48,172.63,28.66,172.62,28.79z M168.45,27.86h2.7c-0.11-0.69-0.63-1.14-1.35-1.14  C169.08,26.72,168.56,27.16,168.45,27.86z"></path>	<path class="st4" d="M69,39.35c0-1.91,1.47-3.28,3.44-3.28c1.1,0,2.01,0.4,2.61,1.12l-0.94,0.87c-0.43-0.49-0.96-0.74-1.6-0.74  c-1.19,0-2.03,0.83-2.03,2.03s0.84,2.03,2.03,2.03c0.63,0,1.17-0.25,1.6-0.75l0.94,0.87c-0.6,0.73-1.51,1.13-2.62,1.13  C70.47,42.63,69,41.26,69,39.35z"></path>	<path class="st4" d="M75.41,40.09c0-1.47,1.13-2.51,2.68-2.51c1.55,0,2.67,1.04,2.67,2.51c0,1.47-1.12,2.51-2.67,2.51  C76.54,42.6,75.41,41.55,75.41,40.09z M79.33,40.09c0-0.84-0.54-1.35-1.24-1.35c-0.71,0-1.25,0.51-1.25,1.35  c0,0.84,0.54,1.35,1.25,1.35C78.8,41.44,79.33,40.93,79.33,40.09z"></path>	<path class="st4" d="M89.95,39.73v2.79h-1.41v-2.57c0-0.79-0.35-1.15-0.92-1.15c-0.63,0-1.08,0.41-1.08,1.28v2.45h-1.41v-2.57  c0-0.79-0.34-1.15-0.92-1.15c-0.63,0-1.07,0.41-1.07,1.28v2.45h-1.41v-4.88h1.35v0.56c0.36-0.42,0.91-0.63,1.53-0.63  c0.68,0,1.26,0.26,1.6,0.8c0.39-0.5,1.02-0.8,1.76-0.8C89.12,37.58,89.95,38.25,89.95,39.73z"></path>	<path class="st4" d="M99.46,39.73v2.79h-1.41v-2.57c0-0.79-0.35-1.15-0.92-1.15c-0.63,0-1.08,0.41-1.08,1.28v2.45h-1.41v-2.57  c0-0.79-0.33-1.15-0.92-1.15c-0.63,0-1.07,0.41-1.07,1.28v2.45h-1.41v-4.88h1.35v0.56c0.36-0.42,0.91-0.63,1.53-0.63  c0.68,0,1.26,0.26,1.6,0.8c0.39-0.5,1.02-0.8,1.76-0.8C98.63,37.58,99.46,38.25,99.46,39.73z"></path>	<path class="st4" d="M105.54,40.49h-3.69c0.14,0.61,0.65,0.98,1.4,0.98c0.52,0,0.89-0.15,1.22-0.47l0.75,0.82  c-0.45,0.52-1.13,0.79-2.01,0.79c-1.69,0-2.78-1.06-2.78-2.51c0-1.46,1.12-2.51,2.6-2.51c1.43,0,2.54,0.96,2.54,2.53  C105.56,40.21,105.55,40.37,105.54,40.49z M101.83,39.66h2.4c-0.1-0.62-0.56-1.01-1.2-1.01C102.39,38.65,101.93,39.04,101.83,39.66  z"></path>	<path class="st4" d="M109.54,37.58v1.3c-0.12-0.01-0.21-0.02-0.32-0.02c-0.78,0-1.3,0.43-1.3,1.36v2.3h-1.41v-4.88h1.35v0.64  C108.2,37.82,108.78,37.58,109.54,37.58z"></path>	<path class="st4" d="M109.97,40.09c0-1.47,1.13-2.51,2.72-2.51c1.02,0,1.83,0.44,2.18,1.24l-1.1,0.59  c-0.26-0.46-0.65-0.67-1.1-0.67c-0.72,0-1.28,0.5-1.28,1.35c0,0.85,0.56,1.35,1.28,1.35c0.44,0,0.83-0.2,1.1-0.67l1.1,0.6  c-0.35,0.78-1.16,1.23-2.18,1.23C111.1,42.6,109.97,41.55,109.97,40.09z"></path>	<path class="st4" d="M120.38,40.49h-3.69c0.14,0.61,0.65,0.98,1.4,0.98c0.52,0,0.89-0.15,1.22-0.47l0.75,0.82  c-0.45,0.52-1.13,0.79-2.01,0.79c-1.69,0-2.78-1.06-2.78-2.51c0-1.46,1.12-2.51,2.6-2.51c1.43,0,2.54,0.96,2.54,2.53  C120.41,40.21,120.39,40.37,120.38,40.49z M116.67,39.66h2.4c-0.1-0.62-0.56-1.01-1.2-1.01C117.23,38.65,116.77,39.04,116.67,39.66  z"></path>	<path class="st4" d="M124.02,36.18h2.88c2.08,0,3.5,1.25,3.5,3.17c0,1.92-1.42,3.17-3.5,3.17h-2.88V36.18z M126.83,41.32  c1.26,0,2.08-0.75,2.08-1.97s-0.82-1.97-2.08-1.97h-1.34v3.93H126.83z"></path>	<path class="st4" d="M136.15,40.49h-3.69c0.14,0.61,0.65,0.98,1.4,0.98c0.52,0,0.89-0.15,1.22-0.47l0.75,0.82  c-0.45,0.52-1.13,0.79-2.01,0.79c-1.69,0-2.78-1.06-2.78-2.51c0-1.46,1.12-2.51,2.6-2.51c1.43,0,2.54,0.96,2.54,2.53  C136.18,40.21,136.16,40.37,136.15,40.49z M132.45,39.66h2.4c-0.1-0.62-0.56-1.01-1.2-1.01C133.01,38.65,132.55,39.04,132.45,39.66  z"></path>	<path class="st4" d="M141.88,37.65l-2.06,4.88h-1.46l-2.05-4.88h1.46l1.35,3.32l1.4-3.32H141.88z"></path>	<path class="st4" d="M147.07,40.49h-3.69c0.14,0.61,0.65,0.98,1.4,0.98c0.52,0,0.89-0.15,1.22-0.47l0.75,0.82  c-0.45,0.52-1.13,0.79-2.01,0.79c-1.69,0-2.78-1.06-2.78-2.51c0-1.46,1.12-2.51,2.6-2.51c1.43,0,2.54,0.96,2.54,2.53  C147.1,40.21,147.08,40.37,147.07,40.49z M143.36,39.66h2.4c-0.1-0.62-0.56-1.01-1.2-1.01C143.92,38.65,143.46,39.04,143.36,39.66z  "></path>	<path class="st4" d="M148.04,35.8h1.41v6.72h-1.41V35.8z"></path>	<path class="st4" d="M150.41,40.09c0-1.47,1.13-2.51,2.68-2.51s2.67,1.04,2.67,2.51c0,1.47-1.12,2.51-2.67,2.51  S150.41,41.55,150.41,40.09z M154.33,40.09c0-0.84-0.54-1.35-1.24-1.35s-1.25,0.51-1.25,1.35c0,0.84,0.54,1.35,1.25,1.35  S154.33,40.93,154.33,40.09z"></path>	<path class="st4" d="M162.02,40.09c0,1.53-1.06,2.51-2.43,2.51c-0.61,0-1.11-0.19-1.47-0.59v2.28h-1.41v-6.63h1.35v0.56  c0.35-0.43,0.88-0.63,1.53-0.63C160.96,37.58,162.02,38.55,162.02,40.09z M160.59,40.09c0-0.84-0.54-1.35-1.24-1.35  s-1.24,0.51-1.24,1.35c0,0.84,0.53,1.35,1.24,1.35S160.59,40.93,160.59,40.09z"></path>	<path class="st4" d="M167.71,40.49h-3.69c0.14,0.61,0.65,0.98,1.4,0.98c0.52,0,0.89-0.15,1.22-0.47l0.75,0.82  c-0.45,0.52-1.13,0.79-2.01,0.79c-1.69,0-2.78-1.06-2.78-2.51c0-1.46,1.12-2.51,2.6-2.51c1.43,0,2.54,0.96,2.54,2.53  C167.74,40.21,167.72,40.37,167.71,40.49z M164.01,39.66h2.4c-0.1-0.62-0.56-1.01-1.2-1.01C164.57,38.65,164.11,39.04,164.01,39.66  z"></path>	<path class="st4" d="M171.71,37.58v1.3c-0.12-0.01-0.21-0.02-0.32-0.02c-0.78,0-1.3,0.43-1.3,1.36v2.3h-1.41v-4.88h1.35v0.64  C170.38,37.82,170.96,37.58,171.71,37.58z"></path></g></svg>